<?plantuml 1.2026.1?><svg xmlns="http://www.w3.org/2000/svg" xmlns:xlink="http://www.w3.org/1999/xlink" contentStyleType="text/css" data-diagram-type="ACTIVITY" height="350px" preserveAspectRatio="none" style="width:611px;height:350px;background:#FFFFFF;" version="1.1" viewBox="0 0 611 350" width="611px" zoomAndPan="magnify"><title>Activity: StudyHelper</title><defs/><g><g class="title" data-source-line="3"><text fill="#000000" font-family="sans-serif" font-size="14" font-weight="bold" lengthAdjust="spacing" textLength="147.4334" x="230.348" y="34.9659">Activity: StudyHelper</text></g><ellipse cx="310.5648" cy="60.0679" fill="#222222" rx="10" ry="10" style="stroke:#222222;stroke-width:1;"/><line style="stroke:#181818;stroke-width:1.5;" x1="95.7585" x2="490.6269" y1="90.0679" y2="90.0679"/><rect fill="none" height="176.0819" style="stroke:#000000;stroke-width:1.5;" width="169.5169" x="11" y="101.6699"/><path d="M97.4117,101.6699 L97.4117,113.7378 L87.4117,123.7378 L11,123.7378" fill="none" style="stroke:#000000;stroke-width:1.5;"/><text fill="#000000" font-family="sans-serif" font-size="14" lengthAdjust="spacing" textLength="76.4117" x="14" y="117.6358">GatherData</text><rect fill="#F1F1F1" height="36.3441" rx="12.5" ry="12.5" style="stroke:#181818;stroke-width:0.5;" width="149.5169" x="21" y="156.2357"/><text fill="#000000" font-family="sans-serif" font-size="12" lengthAdjust="spacing" textLength="129.5169" x="31" y="179.0637">Turn on data collection</text><rect fill="#F1F1F1" height="36.3441" rx="12.5" ry="12.5" style="stroke:#181818;stroke-width:0.5;" width="51.8362" x="69.8403" y="227.5798"/><text fill="#000000" font-family="sans-serif" font-size="12" lengthAdjust="spacing" textLength="31.8362" x="79.8403" y="250.4079">Study</text><rect fill="none" height="176.0819" style="stroke:#000000;stroke-width:1.5;" width="175.6074" x="190.5169" y="101.6699"/><path d="M361.1243,101.6699 L361.1243,113.7378 L351.1243,123.7378 L190.5169,123.7378" fill="none" style="stroke:#000000;stroke-width:1.5;"/><text fill="#000000" font-family="sans-serif" font-size="14" lengthAdjust="spacing" textLength="160.6074" x="193.5169" y="117.6358">FindOutStudyConditions</text><rect fill="#F1F1F1" height="36.3441" rx="12.5" ry="12.5" style="stroke:#181818;stroke-width:0.5;" width="113.0007" x="224.3203" y="156.2357"/><text fill="#000000" font-family="sans-serif" font-size="12" lengthAdjust="spacing" textLength="93.0007" x="234.3203" y="179.0637">Get the machine</text><rect fill="#F1F1F1" height="36.3441" rx="12.5" ry="12.5" style="stroke:#181818;stroke-width:0.5;" width="74.8044" x="243.4184" y="227.5798"/><text fill="#000000" font-family="sans-serif" font-size="12" lengthAdjust="spacing" textLength="54.8044" x="253.4184" y="250.4079">Turn it on</text><rect fill="none" height="130.412" style="stroke:#000000;stroke-width:1.5;" width="224.0052" x="376.1243" y="135.3398"/><path d="M595.1295,135.3398 L595.1295,147.4077 L585.1295,157.4077 L376.1243,157.4077" fill="none" style="stroke:#000000;stroke-width:1.5;"/><text fill="#000000" font-family="sans-serif" font-size="14" lengthAdjust="spacing" textLength="209.0052" x="379.1243" y="151.3057">GetSuggestionForImprovement</text><rect fill="#F1F1F1" height="36.3441" rx="12.5" ry="12.5" style="stroke:#181818;stroke-width:0.5;" width="124.9528" x="428.1505" y="174.4077"/><text fill="#000000" font-family="sans-serif" font-size="12" lengthAdjust="spacing" textLength="104.9528" x="438.1505" y="197.2358">Ask for suggestion</text><line style="stroke:#181818;stroke-width:1.5;" x1="95.7585" x2="490.6269" y1="297.7518" y2="297.7518"/><ellipse cx="310.5648" cy="328.7518" fill="none" rx="11" ry="11" style="stroke:#222222;stroke-width:1;"/><ellipse cx="310.5648" cy="328.7518" fill="#222222" rx="6" ry="6" style="stroke:#222222;stroke-width:1;"/><line style="stroke:#181818;stroke-width:1;" x1="95.7585" x2="95.7585" y1="91.5679" y2="156.2357"/><polygon fill="#181818" points="91.7585,146.2357,95.7585,156.2357,99.7585,146.2357,95.7585,150.2357" style="stroke:#181818;stroke-width:1;"/><line style="stroke:#181818;stroke-width:1;" x1="95.7585" x2="95.7585" y1="192.5798" y2="227.5798"/><polygon fill="#181818" points="91.7585,217.5798,95.7585,227.5798,99.7585,217.5798,95.7585,221.5798" style="stroke:#181818;stroke-width:1;"/><line style="stroke:#181818;stroke-width:1;" x1="95.7585" x2="95.7585" y1="263.9239" y2="297.7518"/><polygon fill="#181818" points="91.7585,287.7518,95.7585,297.7518,99.7585,287.7518,95.7585,291.7518" style="stroke:#181818;stroke-width:1;"/><line style="stroke:#181818;stroke-width:1;" x1="280.8206" x2="280.8206" y1="91.5679" y2="156.2357"/><polygon fill="#181818" points="276.8206,146.2357,280.8206,156.2357,284.8206,146.2357,280.8206,150.2357" style="stroke:#181818;stroke-width:1;"/><line style="stroke:#181818;stroke-width:1;" x1="280.8206" x2="280.8206" y1="192.5798" y2="227.5798"/><polygon fill="#181818" points="276.8206,217.5798,280.8206,227.5798,284.8206,217.5798,280.8206,221.5798" style="stroke:#181818;stroke-width:1;"/><line style="stroke:#181818;stroke-width:1;" x1="280.8206" x2="280.8206" y1="263.9239" y2="297.7518"/><polygon fill="#181818" points="276.8206,287.7518,280.8206,297.7518,284.8206,287.7518,280.8206,291.7518" style="stroke:#181818;stroke-width:1;"/><line style="stroke:#181818;stroke-width:1;" x1="490.6269" x2="490.6269" y1="210.7518" y2="297.7518"/><polygon fill="#181818" points="486.6269,287.7518,490.6269,297.7518,494.6269,287.7518,490.6269,291.7518" style="stroke:#181818;stroke-width:1;"/><line style="stroke:#181818;stroke-width:1;" x1="490.6269" x2="490.6269" y1="91.5679" y2="174.4077"/><polygon fill="#181818" points="486.6269,164.4077,490.6269,174.4077,494.6269,164.4077,490.6269,168.4077" style="stroke:#181818;stroke-width:1;"/><line style="stroke:#181818;stroke-width:1;" x1="310.5648" x2="310.5648" y1="70.0679" y2="90.0679"/><polygon fill="#181818" points="306.5648,80.0679,310.5648,90.0679,314.5648,80.0679,310.5648,84.0679" style="stroke:#181818;stroke-width:1;"/><line style="stroke:#181818;stroke-width:1;" x1="310.5648" x2="310.5648" y1="299.2518" y2="317.7518"/><polygon fill="#181818" points="306.5648,307.7518,310.5648,317.7518,314.5648,307.7518,310.5648,311.7518" style="stroke:#181818;stroke-width:1;"/><?plantuml-src VP71QiCm38RlVWhHozuXEOMLTeEL3jgTXnfhhgaZ1rifXB5tdvAiMmfTVJ3ub_J_7_83l0PaUTkyW2EcX48M3ZrijikzoIVFBIPiO4CvewCgUCTG4mib8ru2GLMBFtlf2zX9P_id2gtMic0IazlWnQY3jlh8i5YZ72ajKN01dmRq13nGW3_zVPeSIiM-ImmwPbM7EeP0zM1JJjKnhhnjGcpDrnGFwD3p76BbsMux6USV8zjHpjT0jtlcS6iIq3nei3vwfdA6hA4NohjkTodLVzSvHtbuhc9wRjeKpzJexY-eHPLFy14JvD_6gttyx_0JhVVqHLbY-mq0?></g></svg>