<?plantuml 1.2026.1?><svg xmlns="http://www.w3.org/2000/svg" xmlns:xlink="http://www.w3.org/1999/xlink" contentStyleType="text/css" data-diagram-type="STATE" height="530px" preserveAspectRatio="none" style="width:307px;height:530px;background:#FFFFFF;" version="1.1" viewBox="0 0 307 530" width="307px" zoomAndPan="magnify"><defs/><g><ellipse cx="104.23" cy="16" fill="#222222" rx="10" ry="10" style="stroke:#222222;stroke-width:1;"/><g><rect fill="#F1F1F1" height="50" rx="12.5" ry="12.5" style="stroke:#181818;stroke-width:0.5;" width="107.4157" x="50.53" y="87"/><line style="stroke:#181818;stroke-width:0.5;" x1="50.53" x2="157.9457" y1="116.0679" y2="116.0679"/><text fill="#000000" font-family="sans-serif" font-size="14" lengthAdjust="spacing" textLength="87.4157" x="60.53" y="106.9659">Not_studying</text></g><g><rect fill="#F1F1F1" height="50" rx="12.5" ry="12.5" style="stroke:#181818;stroke-width:0.5;" width="77.0358" x="65.72" y="216"/><line style="stroke:#181818;stroke-width:0.5;" x1="65.72" x2="142.7558" y1="245.0679" y2="245.0679"/><text fill="#000000" font-family="sans-serif" font-size="14" lengthAdjust="spacing" textLength="57.0358" x="75.72" y="235.9659">studying</text></g><g><rect fill="#F1F1F1" height="50" rx="12.5" ry="12.5" style="stroke:#181818;stroke-width:0.5;" width="194.4673" x="7" y="345"/><line style="stroke:#181818;stroke-width:0.5;" x1="7" x2="201.4673" y1="374.0679" y2="374.0679"/><text fill="#000000" font-family="sans-serif" font-size="14" lengthAdjust="spacing" textLength="174.4673" x="17" y="364.9659">knowsTheStudyConditions</text></g><g><rect fill="#F1F1F1" height="50" rx="12.5" ry="12.5" style="stroke:#181818;stroke-width:0.5;" width="164.1154" x="22.18" y="474"/><line style="stroke:#181818;stroke-width:0.5;" x1="22.18" x2="186.2954" y1="503.0679" y2="503.0679"/><text fill="#000000" font-family="sans-serif" font-size="14" lengthAdjust="spacing" textLength="144.1154" x="32.18" y="493.9659">knowsHowToImprove</text></g><!--link *start* to Not_studying--><g class="link" data-entity-1="ent0002" data-entity-2="ent0003" data-link-type="dependency" data-source-line="2" id="lnk4"><path d="M104.23,26.36 C104.23,40.29 104.23,60.95 104.23,80.65" fill="none" id="*start*-to-Not_studying" style="stroke:#181818;stroke-width:1;"/><polygon fill="#181818" points="104.23,86.65,108.23,77.65,104.23,81.65,100.23,77.65,104.23,86.65" style="stroke:#181818;stroke-width:1;"/></g><!--link Not_studying to studying--><g class="link" data-entity-1="ent0003" data-entity-2="ent0005" data-link-type="dependency" data-source-line="3" id="lnk6"><path d="M104.23,137.49 C104.23,159.98 104.23,187.12 104.23,209.59" fill="none" id="Not_studying-to-studying" style="stroke:#181818;stroke-width:1;"/><polygon fill="#181818" points="104.23,215.59,108.23,206.59,104.23,210.59,100.23,206.59,104.23,215.59" style="stroke:#181818;stroke-width:1;"/><text fill="#000000" font-family="sans-serif" font-size="13" lengthAdjust="spacing" textLength="70.954" x="105.23" y="181.897">GatherData</text></g><!--link studying to knowsTheStudyConditions--><g class="link" data-entity-1="ent0005" data-entity-2="ent0007" data-link-type="dependency" data-source-line="4" id="lnk8"><path d="M104.23,266.49 C104.23,288.98 104.23,316.12 104.23,338.59" fill="none" id="studying-to-knowsTheStudyConditions" style="stroke:#181818;stroke-width:1;"/><polygon fill="#181818" points="104.23,344.59,108.23,335.59,104.23,339.59,100.23,335.59,104.23,344.59" style="stroke:#181818;stroke-width:1;"/><text fill="#000000" font-family="sans-serif" font-size="13" lengthAdjust="spacing" textLength="149.1362" x="105.23" y="310.897">FindOutStudyConditions</text></g><!--link knowsTheStudyConditions to knowsHowToImprove--><g class="link" data-entity-1="ent0007" data-entity-2="ent0009" data-link-type="dependency" data-source-line="5" id="lnk10"><path d="M104.23,395.49 C104.23,417.98 104.23,445.12 104.23,467.59" fill="none" id="knowsTheStudyConditions-to-knowsHowToImprove" style="stroke:#181818;stroke-width:1;"/><polygon fill="#181818" points="104.23,473.59,108.23,464.59,104.23,468.59,100.23,464.59,104.23,473.59" style="stroke:#181818;stroke-width:1;"/><text fill="#000000" font-family="sans-serif" font-size="13" lengthAdjust="spacing" textLength="194.0772" x="105.23" y="439.897">GetSuggestionForImprovement</text></g><?plantuml-src KrS8BaaiILNmJKpEoCnBLKZBBmAAbAQavfLmHMl5AkZgsYduvPV45mF5AZFpqhcGEM1PECTAmJsn92Ero2Mn994BHKbsNdvvSKX6AiZWIkVyl9JCaipyl6AW3hVCl1J_qX8q2IvS6k26UUINX-HxvXOKvPUbWYnEBGakJKzFBGOfSyilWiha0dq10000?></g></svg>